name C:\Users\u0101727\Documents\MyRepositories\upper-imu-dc\Results\main_tracking\Case_40\FLX01_angularVelocities_groundFrame.mot
datacolumns 4
datarows 129
range 0.51000000 1.79000000
endheader 
time	radius_imu_x	radius_imu_y	radius_imu_z	
          0.51000000	         -0.02810526	         -1.22017915	          0.37525700	
          0.52000000	         -0.10171198	         -1.29027304	          0.36110826	
          0.53000000	         -0.14142919	         -1.36271205	          0.36183736	
          0.54000000	         -0.15612494	         -1.43306233	          0.37170567	
          0.55000000	         -0.16062468	         -1.42153236	          0.36520918	
          0.56000000	         -0.16304802	         -1.32106717	          0.33864944	
          0.57000000	         -0.15481278	         -1.30967020	          0.34346134	
          0.58000000	         -0.16234557	         -1.15216462	          0.30917711	
          0.59000000	         -0.17445326	         -0.98261013	          0.27302395	
          0.60000000	         -0.17979931	         -0.96088438	          0.28122127	
          0.61000000	         -0.20008889	         -0.84645131	          0.25640435	
          0.62000000	         -0.23783114	         -0.64399868	          0.19764822	
          0.63000000	         -0.27297915	         -0.54899187	          0.16791814	
          0.64000000	         -0.29930163	         -0.62128199	          0.19007191	
          0.65000000	         -0.31523376	         -0.85479002	          0.26223745	
          0.66000000	         -0.33147849	         -1.14745624	          0.35100356	
          0.67000000	         -0.35702072	         -1.40002550	          0.42296989	
          0.68000000	         -0.38046814	         -1.67837297	          0.49712149	
          0.69000000	         -0.39757688	         -1.99489689	          0.57774537	
          0.70000000	         -0.40623994	         -2.34807824	          0.66521939	
          0.71000000	         -0.40584618	         -2.72885473	          0.75792436	
          0.72000000	         -0.39734349	         -3.12254961	          0.85300316	
          0.73000000	         -0.38324168	         -3.51027369	          0.94664990	
          0.74000000	         -0.36714292	         -3.87203650	          1.03473189	
          0.75000000	         -0.35303220	         -4.19008618	          1.11344955	
          0.76000000	         -0.34459793	         -4.45136171	          1.17980960	
          0.77000000	         -0.34472268	         -4.64879285	          1.23190234	
          0.78000000	         -0.35519616	         -4.78152337	          1.26903782	
          0.79000000	         -0.37669915	         -4.85405112	          1.29170221	
          0.80000000	         -0.40904682	         -4.87449099	          1.30130024	
          0.81000000	         -0.45155150	         -4.85256801	          1.29976923	
          0.82000000	         -0.50330672	         -4.79799949	          1.28921879	
          0.83000000	         -0.56327009	         -4.71956654	          1.27168581	
          0.84000000	         -0.63017242	         -4.62477198	          1.24900332	
          0.85000000	         -0.70236604	         -4.51974413	          1.22260468	
          0.86000000	         -0.77775201	         -4.40952197	          1.19366635	
          0.87000000	         -0.85371757	         -4.29724651	          1.16156154	
          0.88000000	         -0.92708861	         -4.19395566	          1.13220175	
          0.89000000	         -0.99410346	         -4.11083828	          1.11223282	
          0.90000000	         -1.05107558	         -4.05153700	          1.10275437	
          0.91000000	         -1.09321044	         -4.02099452	          1.10576264	
          0.92000000	         -1.11424035	         -4.02600355	          1.12431435	
          0.93000000	         -1.10659829	         -4.07495055	          1.16238472	
          0.94000000	         -1.06224535	         -4.17611773	          1.22415207	
          0.95000000	         -0.97451011	         -4.33485022	          1.31273625	
          0.96000000	         -0.84049291	         -4.55037477	          1.42872829	
          0.97000000	         -0.66336052	         -4.81328261	          1.56895783	
          0.98000000	         -0.45342000	         -5.10513702	          1.72615820	
          0.99000000	         -0.22784146	         -5.39996384	          1.88931730	
          1.00000000	         -0.00748109	         -5.66913481	          2.04538088	
          1.01000000	          0.18673068	         -5.88692210	          2.18142824	
          1.02000000	          0.33766198	         -6.03574273	          2.28707978	
          1.03000000	          0.43452029	         -6.10860609	          2.35627739	
          1.04000000	          0.47290030	         -6.10797074	          2.38740949	
          1.05000000	          0.45364258	         -6.04304412	          2.38243554	
          1.06000000	          0.38169320	         -5.92729371	          2.34596406	
          1.07000000	          0.26599315	         -5.77713412	          2.28471035	
          1.08000000	          0.11901597	         -5.61044297	          2.20691739	
          1.09000000	         -0.04479408	         -5.44427727	          2.12119018	
          1.10000000	         -0.21151908	         -5.29223557	          2.03500707	
          1.11000000	         -0.37015854	         -5.16270063	          1.95353395	
          1.12000000	         -0.51453421	         -5.05820256	          1.87898573	
          1.13000000	         -0.64346212	         -4.97653280	          1.81090577	
          1.14000000	         -0.75937111	         -4.91289586	          1.74717741	
          1.15000000	         -0.86621144	         -4.86217469	          1.68531266	
          1.16000000	         -0.96716923	         -4.82078364	          1.62366866	
          1.17000000	         -1.06311398	         -4.78744606	          1.56216048	
          1.18000000	         -1.15206376	         -4.76290510	          1.50242859	
          1.19000000	         -1.22967682	         -4.74886484	          1.44750763	
          1.20000000	         -1.29077107	         -4.74645403	          1.40103027	
          1.21000000	         -1.33148202	         -4.75465432	          1.36613491	
          1.22000000	         -1.35078630	         -4.76951710	          1.34459125	
          1.23000000	         -1.35130904	         -4.78410841	          1.33630464	
          1.24000000	         -1.33995598	         -4.78882181	          1.33907753	
          1.25000000	         -1.32383077	         -4.77398600	          1.34990554	
          1.26000000	         -1.31064198	         -4.72796083	          1.35404327	
          1.27000000	         -1.30417161	         -4.64347339	          1.34208188	
          1.28000000	         -1.30802917	         -4.51755843	          1.31458951	
          1.29000000	         -1.32267427	         -4.35036440	          1.27277050	
          1.30000000	         -1.34521327	         -4.14448922	          1.21905855	
          1.31000000	         -1.37137758	         -3.90357830	          1.15660107	
          1.32000000	         -1.39716842	         -3.63144676	          1.08910617	
          1.33000000	         -1.42019100	         -3.33165635	          1.02083515	
          1.34000000	         -1.44103494	         -3.00733386	          0.95641956	
          1.35000000	         -1.46353186	         -2.66164982	          0.90047373	
          1.36000000	         -1.49974865	         -2.29656800	          0.85151156	
          1.37000000	         -1.54548916	         -1.92007805	          0.82459724	
          1.38000000	         -1.51108910	         -1.54943670	          0.79214462	
          1.39000000	         -1.37471521	         -1.19985079	          0.83039880	
          1.40000000	         -1.22492076	         -0.85844866	          0.79690295	
          1.41000000	         -0.91366411	         -0.55885252	          0.88338652	
          1.42000000	         -0.71310650	         -0.27967832	          0.85434395	
          1.43000000	         -0.58400961	         -0.04349552	          0.83945752	
          1.44000000	         -0.48707608	          0.12231084	          0.88084196	
          1.45000000	         -0.45265492	          0.21906614	          0.93157492	
          1.46000000	         -0.47684284	          0.24684851	          0.97263159	
          1.47000000	         -0.56463265	          0.21204726	          0.99387745	
          1.48000000	         -0.71255506	          0.12259961	          0.99338977	
          1.49000000	         -0.91089289	         -0.01254504	          0.97336375	
          1.50000000	         -1.14366327	         -0.18413319	          0.93816542	
          1.51000000	         -1.38977853	         -0.38278164	          0.89308816	
          1.52000000	         -1.62388341	         -0.59894694	          0.84386680	
          1.53000000	         -1.81760397	         -0.82273762	          0.79646392	
          1.54000000	         -1.94132158	         -1.04376319	          0.75687655	
          1.55000000	         -1.96988835	         -1.25110398	          0.72994113	
          1.56000000	         -1.88420635	         -1.43435993	          0.71989826	
          1.57000000	         -1.70363383	         -1.58537306	          0.71988094	
          1.58000000	         -1.45527029	         -1.70115532	          0.76625003	
          1.59000000	         -1.23296936	         -1.76554783	          0.77166396	
          1.60000000	         -0.91823045	         -1.78792535	          0.83684873	
          1.61000000	         -0.68206318	         -1.75802043	          0.85550255	
          1.62000000	         -0.51007795	         -1.68639858	          0.88525465	
          1.63000000	         -0.47551867	         -1.56445609	          0.89114820	
          1.64000000	         -0.53778094	         -1.39476249	          0.85954165	
          1.65000000	         -0.59610050	         -1.17266333	          0.85298187	
          1.66000000	         -0.67000509	         -0.88935878	          0.82564085	
          1.67000000	         -0.70351607	         -0.54960260	          0.80082687	
          1.68000000	         -0.73446882	         -0.16592501	          0.79580429	
          1.69000000	         -0.84692338	          0.25300406	          0.74509114	
          1.70000000	         -0.86172221	          0.69186426	          0.75202574	
          1.71000000	         -0.95135205	          1.12315274	          0.73533088	
          1.72000000	         -1.09717495	          1.51183038	          0.71036331	
          1.73000000	         -1.19763305	          1.88115787	          0.72111195	
          1.74000000	         -1.28142817	          2.20900383	          0.73414583	
          1.75000000	         -1.31892019	          2.49447015	          0.75203190	
          1.76000000	         -1.30015779	          2.73868512	          0.77413694	
          1.77000000	         -1.22805925	          2.94330967	          0.79852243	
          1.78000000	         -1.11387655	          3.10990431	          0.82298237	
          1.79000000	         -0.97490468	          3.23940672	          0.84565272	
